<?xml version="1.0" encoding="UTF-8" standalone="no"?>
<!DOCTYPE svg PUBLIC "-//W3C//DTD SVG 1.1//EN" "http://www.w3.org/Graphics/SVG/1.1/DTD/svg11.dtd">
<svg width="100%" height="100%" viewBox="0 0 600 600" version="1.1" xmlns="http://www.w3.org/2000/svg" xmlns:xlink="http://www.w3.org/1999/xlink" xml:space="preserve" xmlns:serif="http://www.serif.com/" style="fill-rule:evenodd;clip-rule:evenodd;stroke-linejoin:round;stroke-miterlimit:2;">
    <g transform="matrix(5.50379,0,0,5.50379,-1334.42,-1793.84)">
        <g id="Layer-1" serif:id="Layer 1">
            <g>
                <g transform="matrix(1,0,0,1,296.953,325.571)">
                    <path d="M0,109.373C-1.46,109.373 -2.912,108.992 -4.19,108.252L-17.528,100.36C-19.519,99.246 -18.547,98.851 -17.89,98.622C-15.233,97.7 -14.695,97.487 -11.859,95.879C-11.564,95.712 -11.172,95.776 -10.867,95.955L-0.62,102.038C-0.249,102.244 0.275,102.244 0.617,102.038L40.567,78.98C40.939,78.768 41.177,78.34 41.177,77.899L41.177,31.795C41.177,31.344 40.939,30.923 40.557,30.694L0.624,7.656C0.255,7.44 -0.235,7.44 -0.607,7.656L-40.53,30.701C-40.918,30.923 -41.164,31.358 -41.164,31.795L-41.164,77.899C-41.164,78.34 -40.918,78.758 -40.534,78.967L-29.59,85.29C-23.652,88.259 -20.016,84.762 -20.016,81.249L-20.016,35.73C-20.016,35.086 -19.499,34.579 -18.855,34.579L-13.79,34.579C-13.156,34.579 -12.632,35.086 -12.632,35.73L-12.632,81.249C-12.632,89.174 -16.948,93.719 -24.461,93.719C-26.77,93.719 -28.588,93.719 -33.663,91.218L-44.139,85.187C-46.727,83.691 -48.329,80.894 -48.329,77.899L-48.329,31.795C-48.329,28.8 -46.727,26.003 -44.139,24.514L-4.19,1.429C-1.662,0 1.698,0 4.206,1.429L44.153,24.514C46.74,26.01 48.349,28.8 48.349,31.795L48.349,77.899C48.349,80.894 46.74,83.681 44.153,85.187L4.206,108.252C2.929,108.992 1.48,109.373 0,109.373" style="fill:rgb(103,159,100);fill-rule:nonzero;"/>
                </g>
                <g transform="matrix(1,0,0,1,309.293,358.923)">
                    <path d="M0,44.259C-17.482,44.259 -21.144,36.235 -21.144,29.504C-21.144,28.864 -20.63,28.353 -19.99,28.353L-14.825,28.353C-14.248,28.353 -13.767,28.768 -13.677,29.331C-12.897,34.589 -10.572,37.243 0,37.243C8.416,37.243 11.999,35.339 11.999,30.874C11.999,28.3 10.983,26.389 -2.096,25.108C-13.027,24.027 -19.788,21.612 -19.788,12.868C-19.788,4.807 -12.994,0 -1.602,0C11.196,0 17.529,4.442 18.331,13.972C18.361,14.301 18.245,14.616 18.026,14.861C17.807,15.09 17.502,15.23 17.18,15.23L11.995,15.23C11.458,15.23 10.983,14.848 10.874,14.327C9.63,8.794 6.605,7.026 -1.602,7.026C-10.791,7.026 -11.859,10.227 -11.859,12.626C-11.859,15.532 -10.599,16.377 1.808,18.019C14.085,19.642 19.917,21.94 19.917,30.569C19.917,39.273 12.659,44.259 0,44.259" style="fill:rgb(103,159,100);fill-rule:nonzero;"/>
                </g>
            </g>
        </g>
    </g>
</svg>
